 http://img694.imageshack.us/img694/8136/wonderwomanposter.jpg


Wonder Woman is a 2009  direct-to-video animated film focusing on the superheroine Wonder Woman. The plot of the film is loosely based on George Pérez' reboot of the character, specifically the "Gods and Mortals" arc that started the character's second volume in 1987.[4]  It is the fourth in the line of DC Universe Animated Original Movies released by Warner Premiere and Warner Bros. Animation.

The film is directed by Lauren Montgomery, who directed the second act of Superman: Doomsday and did storyboard work for Justice League: The New Frontier, and written by Gail Simone and Michael Jelenic. As with all previous releases in this line of films, it is produced by acclaimed DC Comics animation veteran Bruce Timm.

 
http://img16.imageshack.us/i/wonderwoman20091080pbluh.png/ 
http://img11.imageshack.us/i/wonderwoman20091080pblu.png/ 
http://img695.imageshack.us/i/wonderwoman20091080pblu.png/ 
http://img204.imageshack.us/i/wonderwoman20091080pblu.png/ 
http://img211.imageshack.us/i/wonderwoman20091080pblu.png/


Directed by 	Lauren Montgomery
Produced by 	Bruce Timm
Gregory Noveck
Bobbie Page
Sam Register
Sander Schwartz
Written by 	Gail Simone
Michael Jelenic
Starring 	Keri Russell
Nathan Fillion
Music by 	Christopher Drake
Studio 	Warner Bros. Animation
Warner Premiere
DC Comics
Distributed by 	Warner Home Video
Release date(s) 	March 3, 2009
Running time 	75 minutes
Language 	English


Complete name                    : Wonder Woman 1080p.mkv
Format                           : Matroska
File size                        : 3.28 GiB
Duration                         : 1h 13mn
Overall bit rate                 : 6 373 Kbps
Encoded date                     : UTC 2011-02-03 11:36:53
Writing application              : mkvmerge v4.3.0 ('Escape from the Island') built on Sep  5 2010 10:30:51
Writing library                  : libebml v1.0.0 + libmatroska v1.0.0

Video
ID                               : 1
Format                           : AVC
Format/Info                      : Advanced Video Codec
Format profile                   : High@L4.1
Format settings, CABAC           : Yes
Format settings, ReFrames        : 4 frames
Muxing mode                      : Header stripping
Codec ID                         : V_MPEG4/ISO/AVC
Duration                         : 1h 13mn
Bit rate                         : 5 730 Kbps
Width                            : 1 920 pixels
Height                           : 1 080 pixels
Display aspect ratio             : 16:9
Frame rate                       : 23.976 fps
Color space                      : YUV
Chroma subsampling               : 4:2:0
Bit depth                        : 8 bits
Scan type                        : Progressive
Bits/(Pixel*Frame)               : 0.115
Stream size                      : 2.88 GiB (88%)
Audio
ID                               : 2
Format                           : AC-3
Format/Info                      : Audio Coding 3
Mode extension                   : CM (complete main)
Muxing mode                      : Header stripping
Codec ID                         : A_AC3
Duration                         : 1h 13mn
Bit rate mode                    : Constant
Bit rate                         : 640 Kbps
Channel(s)                       : 6 channels
Channel positions                : Front: L C R, Side: L R, LFE
Sampling rate                    : 48.0 KHz
Bit depth                        : 16 bits
Stream size                      : 337 MiB (10%)
Language                         : English

Text #1
ID                               : 3
Format                           : UTF-8
Codec ID                         : S_TEXT/UTF8
Codec ID/Info                    : UTF-8 Plain Text
Language                         : Italian

Text #2
ID                               : 4
Format                           : UTF-8
Codec ID                         : S_TEXT/UTF8
Codec ID/Info                    : UTF-8 Plain Text
Language                         : English